<svg width="456" height="456" viewBox="0 0 456 456" fill="none" xmlns="http://www.w3.org/2000/svg">
<mask id="mask0_603_6" style="mask-type:alpha" maskUnits="userSpaceOnUse" x="0" y="0" width="456" height="456">
<circle cx="228" cy="228" r="228" fill="url(#paint0_radial_603_6)"/>
</mask>
<g mask="url(#mask0_603_6)">
<rect opacity="0.1" x="68.4883" y="29.7391" width="1.80237" height="396.522" fill="white"/>
<rect opacity="0.1" x="147.793" y="29.7391" width="1.80237" height="396.522" fill="white"/>
<rect opacity="0.1" x="227.098" y="29.7391" width="1.80237" height="396.522" fill="white"/>
<rect opacity="0.1" x="306.402" y="29.7391" width="1.80237" height="396.522" fill="white"/>
<rect opacity="0.1" x="385.707" y="29.7391" width="1.80237" height="396.522" fill="white"/>
<rect opacity="0.1" x="426.262" y="68.4901" width="1.80237" height="396.522" transform="rotate(90 426.262 68.4901)" fill="white"/>
<rect opacity="0.1" x="426.262" y="147.794" width="1.80237" height="396.522" transform="rotate(90 426.262 147.794)" fill="white"/>
<rect opacity="0.1" x="426.262" y="227.099" width="1.80237" height="396.522" transform="rotate(90 426.262 227.099)" fill="white"/>
<rect opacity="0.1" x="426.262" y="306.403" width="1.80237" height="396.522" transform="rotate(90 426.262 306.403)" fill="white"/>
<rect opacity="0.1" x="426.262" y="385.708" width="1.80237" height="396.522" transform="rotate(90 426.262 385.708)" fill="white"/>
</g>
<defs>
<radialGradient id="paint0_radial_603_6" cx="0" cy="0" r="1" gradientUnits="userSpaceOnUse" gradientTransform="translate(228 228) rotate(90) scale(228)">
<stop stop-color="white"/>
<stop offset="1" stop-color="white" stop-opacity="0"/>
</radialGradient>
</defs>
</svg>
