<?xml version="1.0" standalone="no"?>
<!DOCTYPE svg PUBLIC "-//W3C//DTD SVG 1.1//EN" "http://www.w3.org/Graphics/SVG/1.1/DTD/svg11.dtd" >
<svg xmlns="http://www.w3.org/2000/svg" xmlns:xlink="http://www.w3.org/1999/xlink" version="1.1">
<metadata>
Created by FontForge 20201107 at Sun Jan 10 07:40:35 2016
 By Unknown
Copyright (c) 2016 by HENRIavecunK. All rights reserved. 
</metadata>
<defs>
<font id="Nizza-Regular" horiz-adv-x="433" >
  <font-face 
    font-family="Nizza"
    font-weight="400"
    font-stretch="normal"
    units-per-em="1208"
    panose-1="0 0 0 0 0 0 0 0 0 0"
    ascent="963"
    descent="-245"
    x-height="755"
    cap-height="755"
    bbox="-76 -203 810 967"
    underline-thickness="60"
    underline-position="-121"
    unicode-range="U+000D-222B"
  />
<missing-glyph horiz-adv-x="407" 
 />
    <glyph glyph-name=".notdef" horiz-adv-x="407" 
 />
    <glyph glyph-name="NULL" horiz-adv-x="0" 
 />
    <glyph glyph-name="nonmarkingreturn" unicode="&#xd;" horiz-adv-x="302" 
 />
    <glyph glyph-name="space" unicode=" " horiz-adv-x="407" 
 />
    <glyph glyph-name="exclam" unicode="!" horiz-adv-x="201" 
d="M107 755v-1l-29 -574h-49l-29 575h107zM53 92q22 0 37.5 -15t15.5 -37t-15.5 -37t-37.5 -15q-21 0 -36.5 15t-15.5 37t15.5 37t36.5 15z" />
    <glyph glyph-name="dollar" unicode="$" horiz-adv-x="394" 
d="M274 114q2 25 -4 49t-18 47q-7 13 -17 26v-201q17 14 27 35t12 44zM192 17q4 0 7.5 1t7.5 2v253q-9 10 -18 19.5t-18 18.5v-295h10.5t10.5 1zM125 537q7 -17 18 -30v221q-23 -14 -32.5 -38t-10 -51t6.5 -54t18 -48zM207 740q-19 3 -36 -1v-270q9 -11 17.5 -20.5
t18.5 -19.5v311v0zM235 399q23 -24 44.5 -48.5t38 -51.5t26.5 -57.5t10 -66.5q0 -20 -5 -45q-11 -45 -41.5 -80t-72.5 -51v-30h-28v22q-18 -3 -36 -3v-19h-28v23q-2 1 -3.5 1t-3.5 1q-56 15 -90 60t-44 100h28q10 -45 39.5 -83.5t73.5 -50.5v320q-8 8 -14.5 15t-13.5 15
q-38 42 -64.5 90t-26.5 106q0 39 12 78t38 70q29 32 69 47v36h28v-30q18 3 36 0v30h28v-36q24 -9 44 -25t34 -37t23.5 -46t12.5 -50h-28q-5 28 -16 54t-31 46q-8 8 -18 15t-21 12v-331v0z" />
    <glyph glyph-name="ampersand" unicode="&#x26;" horiz-adv-x="541" 
d="M267 56q27 44 26 144v182h-96q-15 0 -30 -6.5t-28 -26t-21 -55t-8 -94.5q0 -101 25 -144q22 -37 67 -37q43 0 65 37zM403 382v-185q0 -45 7 -78t19 -53q22 -37 66 -37v-29q-84 0 -143 62q0 -2 -2 -4q-29 -33 -66.5 -50.5t-81.5 -17.5q-29 0 -52 6t-41.5 16t-32 22
t-23.5 23q-26 29 -39.5 67t-13.5 79q0 42 14.5 79.5t40.5 66.5q29 32 71 49q-20 9 -35.5 21.5t-25.5 24.5q-23 27 -36 62t-13 72q0 38 13 73t38 61q26 29 60.5 43.5t74.5 14.5q26 0 47 -7q29 -8 52.5 -24.5t41 -39t29 -49.5t16.5 -55h-29q-6 27 -18.5 52.5t-31 46t-42.5 33
t-52 14.5h-6h-7q-3 0 -6.5 -0.5t-8.5 -1.5q-12 -2 -24 -10t-21.5 -26t-15.5 -49t-6 -79q0 -93 23 -130q19 -32 59 -32h293v-31h-92z" />
    <glyph glyph-name="quotesingle" unicode="'" horiz-adv-x="112" 
d="M62 573h-23l-28 178h79z" />
    <glyph glyph-name="parenleft" unicode="(" horiz-adv-x="214" 
d="M157 -122q-37 50 -66 111t-49.5 125t-31 128t-10.5 121q0 64 10.5 129t31 127t49.5 120t66 108h29q-30 -59 -53.5 -114.5t-39.5 -113t-24 -120.5t-8 -136t8 -136t24 -121t39.5 -114t53.5 -114h-29z" />
    <glyph glyph-name="parenright" unicode=")" horiz-adv-x="214" 
d="M0 -122q30 58 53.5 114t39.5 114t24 121t8 136t-8 136t-24 120.5t-39.5 113t-53.5 114.5h29q36 -50 65.5 -108t49.5 -120t31 -127t11 -129q0 -57 -11 -121t-31 -128t-49.5 -125t-65.5 -111h-29z" />
    <glyph glyph-name="comma" unicode="," horiz-adv-x="156" 
d="M102 60q2 -3 4 -12t1 -19q0 -20 -7 -40t-18.5 -36t-26.5 -25.5t-31 -9.5v23q16 4 31.5 19.5t20.5 32.5q-9 -5 -23 -5q-22 0 -37 15t-15 37t15 37t37 15q17 0 30 -9t19 -23z" />
    <glyph glyph-name="hyphen" unicode="-" horiz-adv-x="289" 
d="M257 334h-257v64h257v-64z" />
    <glyph glyph-name="period" unicode="." horiz-adv-x="135" 
d="M53 92q22 0 37.5 -15t15.5 -37t-15.5 -37t-37.5 -15t-37 15t-15 37t15 37t37 15z" />
    <glyph glyph-name="slash" unicode="/" horiz-adv-x="290" 
d="M48 0h-42l231 755h43z" />
    <glyph glyph-name="zero" unicode="0" horiz-adv-x="482" 
d="M293 557q0 101 -25 145q-23 36 -66 36q-44 0 -66 -36q-26 -43 -26 -145v-360q0 -101 25 -144q22 -36 67 -36q43 0 65 36q14 22 20 58t6 86v360zM350 700q26 -29 39.5 -67t13.5 -79v-354q0 -39 -13.5 -77t-39.5 -67q-29 -33 -66.5 -50.5t-81.5 -17.5q-29 0 -52 6t-41.5 16
t-32 21.5t-23.5 23.5q-26 29 -39.5 67t-13.5 78v354q0 40 13.5 77.5t39.5 67.5q29 33 67 50.5t82 17.5q28 0 51 -6t41.5 -16t32 -21.5t23.5 -23.5z" />
    <glyph glyph-name="one" unicode="1" horiz-adv-x="227" 
d="M159 756v-756h-103v649l-41 -31l-15 20v1z" />
    <glyph glyph-name="two" unicode="2" horiz-adv-x="401" 
d="M330 527l-209 -502h204v-25h-325l231 556q7 16 11 29.5t6 20.5q4 18 4 40t-6.5 42t-20.5 34t-36 15q-11 1 -30 -5q-10 -3 -18 -7l-12 -6q-41 -26 -67 -70q-12 -19 -20 -42h-29q10 30 25 57q31 51 76.5 78.5t93.5 27.5q39 0 71 -19q25 -15 41.5 -39.5t23.5 -54.5t3.5 -63
t-17.5 -66v-1z" />
    <glyph glyph-name="three" unicode="3" horiz-adv-x="422" 
d="M216 400q39 -8 67 -27.5t47 -47t28 -60.5t9 -69q0 -41 -15 -76.5t-41 -62t-61 -42t-76 -15.5h-174v23h155q51 0 76 46.5t25 123.5q0 63 -14 101t-33 58.5t-38.5 26.5t-29.5 6h-109v25h111q19 0 36.5 12.5t31 34t21.5 52t8 66.5q0 56 -12 87.5t-29 47.5t-37 19.5t-36 3.5
h-126v22h154q40 0 74.5 -9t60.5 -29t41 -51.5t15 -76.5q0 -32 -8 -63t-24 -57t-40.5 -44.5t-56.5 -24.5z" />
    <glyph glyph-name="four" unicode="4" horiz-adv-x="482" 
d="M259 303v361l-169 -361h169zM431 199h-69v-199h-103v199h-259l33 70q12 26 30.5 66t46 98.5t64.5 137.5t85 183v1h103v-452h69v-104z" />
    <glyph glyph-name="five" unicode="5" horiz-adv-x="443" 
d="M168 646l-57 -176q52 -5 99 -23.5t83 -51t57.5 -78t21.5 -103.5q0 -36 -9 -70t-26.5 -62.5t-43.5 -50t-60 -33.5q-7 -2 -13 -4t-13 -3q-1 -1 -3 -1q-17 -3 -34.5 -2.5t-35.5 5.5q-56 16 -90.5 62t-43.5 102h28q6 -29 20 -56t35 -47.5t48 -31t59 -6.5q5 1 11.5 1.5
t10.5 2.5q5 1 9.5 2t9.5 3q9 4 16.5 9t15.5 11l9 9q17 18 26 43t9 53q0 53 -24 93t-62.5 67.5t-86.5 42.5t-96 17l118 385h219v-109h-207z" />
    <glyph glyph-name="six" unicode="6" horiz-adv-x="454" 
d="M190 424q-32 -3 -48.5 -26t-24.5 -52.5t-9 -58.5t-1 -44q0 -69 7 -114t20 -70.5t31.5 -35.5t40.5 -10q31 0 48 26t24.5 61t9 70t1.5 54q0 67 -9.5 107t-24 61t-32 27t-33.5 5zM0 500q0 40 9 78.5t25 72.5q10 32 33.5 56.5t54 39.5t65.5 19t69 -5q56 -16 90.5 -62
t43.5 -102h-28q-6 29 -20 56t-35 47.5t-48 31t-59 6.5t-53 -26.5t-28 -52.5q-2 -5 -2 -7.5v-4.5v-2q-6 -29 -8 -63.5t-2 -82.5v-2v-101q2 2 4 5q2 2 3.5 5t3.5 6q17 20 42.5 31.5t54.5 11.5q41 0 73.5 -16.5t55 -45.5t34.5 -70t12 -89q0 -55 -13 -100t-37.5 -77.5t-59 -50
t-77.5 -17.5q-53 0 -91 24t-62.5 63t-36.5 88.5t-13 100.5v235z" />
    <glyph glyph-name="seven" unicode="7" horiz-adv-x="401" 
d="M352 755l-244 -755h-45l202 647h-265l1 108h351z" />
    <glyph glyph-name="eight" unicode="8" horiz-adv-x="482" 
d="M267 53q14 22 20 58t6 86q0 59 -8 94.5t-20.5 55t-28 26t-29.5 7.5h-5h-5q-15 -1 -30 -7.5t-28 -26t-21 -55t-8 -94.5q0 -101 25 -144q22 -36 67 -36q43 0 65 36zM202 737q-14 0 -28.5 -5t-26.5 -22t-19.5 -49.5t-7.5 -87.5q0 -92 23 -131q19 -32 59 -32q38 0 57 32
q24 40 24 131q0 55 -7.5 87.5t-19.5 49.5t-26.5 22t-27.5 5zM349 346q26 -29 40 -66.5t14 -79.5q0 -39 -13.5 -77t-39.5 -67q-29 -33 -66.5 -50.5t-81.5 -17.5q-29 0 -52 6t-41.5 16t-32 21.5t-23.5 23.5q-26 29 -39.5 67t-13.5 78q0 42 14.5 79.5t40.5 66.5q29 32 71 49
q-20 9 -35.5 21.5t-25.5 24.5q-23 27 -36 62t-13 72q0 79 51 135q26 28 60.5 42.5t74.5 14.5t74.5 -14.5t60.5 -42.5q24 -27 37 -61.5t13 -73.5q0 -36 -13 -70.5t-36 -61.5q-26 -32 -62 -47q40 -16 73 -50z" />
    <glyph glyph-name="nine" unicode="9" horiz-adv-x="482" 
d="M201 333q31 3 48 25.5t24.5 52t8.5 58.5t1 44q0 69 -7 114t-20 70.5t-31.5 35.5t-40.5 10q-31 0 -48 -26t-24.5 -61t-9 -70t-1.5 -54q0 -67 9.5 -107t24 -61t32 -27t34.5 -4zM390 256q0 -40 -8.5 -78.5t-24.5 -72.5q-11 -32 -34.5 -56.5t-54 -39.5t-65.5 -19t-69 5
q-56 16 -90.5 62t-43.5 102h28q6 -29 20 -56t35 -47.5t48 -31t59 -6.5t53 26.5t28 52.5q1 5 2 7.5t1 4.5v2q6 29 7.5 63.5t1.5 82.5v2v101q-2 -2 -4 -5q-2 -2 -3.5 -5t-3.5 -6q-17 -20 -42.5 -31.5t-54.5 -11.5q-41 0 -73.5 16.5t-55 45.5t-34.5 70t-12 89q0 55 13 100
t37.5 77t59 50t77.5 18q53 0 91 -24t63 -63t37 -88.5t12 -100.5v-235z" />
    <glyph glyph-name="colon" unicode=":" horiz-adv-x="120" 
d="M53 425q22 0 37.5 -15t15.5 -37t-15.5 -37.5t-37.5 -15.5t-37 15.5t-15 37.5t15 37t37 15zM53 92q22 0 37.5 -15t15.5 -37t-15.5 -37t-37.5 -15t-37 15t-15 37t15 37t37 15z" />
    <glyph glyph-name="semicolon" unicode=";" horiz-adv-x="114" 
d="M53 425q22 0 37.5 -15t15.5 -37t-15.5 -37.5t-37.5 -15.5t-37 15.5t-15 37.5t15 37t37 15zM102 60q-6 14 -19 23t-30 9q-22 0 -37 -15t-15 -37t15 -37t37 -15q14 0 23 5q-5 -17 -20.5 -32.5t-31.5 -19.5v-23q16 0 31 9.5t26.5 25.5t18.5 36t7 40q1 10 -1 19t-4 12z" />
    <glyph glyph-name="question" unicode="?" horiz-adv-x="382" 
d="M154 92q22 0 37.5 -15t15.5 -37t-15.5 -37t-37.5 -15t-37 15t-15 37t15 37t37 15zM203 765q31 -4 58 -15.5t47.5 -31t32.5 -47.5t12 -65q0 -41 -14 -71.5t-35 -56.5t-46 -51t-46 -55.5t-35.5 -70.5t-15.5 -95h-24q0 7 -0.5 13.5t-0.5 12.5q0 45 9 77.5t22.5 59.5
t29.5 50.5t29.5 50.5t22.5 60t9 78q0 23 -4 45t-13 39.5t-24 29.5t-37 17q-27 5 -54 -6t-47 -31t-31 -46t-16 -54h-28q4 28 15 55.5t29 50t42 38t54 20.5q5 1 10.5 1.5t10.5 0.5q4 -1 7 -0.5t10 -0.5q5 0 10.5 -0.5t10.5 -1.5z" />
    <glyph glyph-name="at" unicode="@" horiz-adv-x="852" 
d="M744 90q-58 -43 -118 -67q-53 -21 -103 -29.5t-95 -8.5q-82 0 -153.5 24t-126.5 69q-62 51 -97.5 123t-35.5 162q0 97 41.5 176.5t110.5 135.5q61 49 136.5 76t157.5 27q66 0 120.5 -16t97.5 -45q64 -43 97.5 -109t33.5 -146q0 -67 -20 -122t-51 -94t-70 -60.5t-76 -21.5
q-45 0 -73.5 27t-28.5 73q-23 -43 -60 -71.5t-80 -28.5q-26 0 -49 11.5t-40.5 32t-28 49t-10.5 63.5q0 38 16 80t44 80q32 42 75 69.5t93 27.5q24 0 41 -9t28 -22.5t17 -30t8 -30.5l23 84h72l-69 -239q-13 -44 -16 -62.5t-3 -28.5q0 -23 14.5 -35t35.5 -12q45 0 83.5 31.5
t64.5 82.5q18 34 28 73.5t10 81.5q0 71 -31 131t-88 100q-41 29 -93.5 44.5t-115.5 15.5q-79 0 -147.5 -29.5t-121.5 -81.5q-55 -56 -87 -131.5t-32 -163.5q0 -75 24 -136t68 -105q48 -47 114.5 -72.5t149.5 -25.5q52 0 97.5 9.5t85.5 24.5q35 14 65.5 30.5t56.5 35.5z
M455 556q-32 0 -60.5 -26.5t-50.5 -65.5q-25 -44 -38.5 -94.5t-11.5 -92.5q1 -23 8.5 -39.5t18.5 -27t23.5 -15t23.5 -4.5q27 0 53.5 18.5t48.5 53t37.5 83t19.5 109.5q2 25 -4 43.5t-16.5 31.5t-24.5 19.5t-27 6.5z" />
    <glyph glyph-name="A" unicode="A" 
d="M229 272l-61 372l-73 -372h134zM378 0h-104l-40 243h-145l-48 -243h-40l148 755h104z" />
    <glyph glyph-name="B" unicode="B" horiz-adv-x="422" 
d="M155 23q51 0 76 46.5t25 123.5q0 63 -14 101t-33 58.5t-38.5 26.5t-29.5 6h-37v-360v-2h51v0zM104 410h39q19 0 36.5 12.5t31 34t21.5 52t8 66.5q0 56 -12 87.5t-29 47.5t-37 19.5t-36 3.5h-22v-323zM216 400q39 -8 67 -27.5t47 -47t28 -60.5t9 -69q0 -41 -15 -76.5
t-41 -62t-61 -42t-76 -15.5h-174v755h154q40 0 74.5 -9t60.5 -29t41 -51.5t15 -76.5q0 -32 -8 -63t-24 -57t-40.5 -44.5t-56.5 -24.5z" />
    <glyph glyph-name="C" unicode="C" horiz-adv-x="423" 
d="M233 13q25 0 44 12.5t33 32t24 44.5t16 51h28q-3 -19 -11.5 -47t-26 -54.5t-44 -45t-63.5 -18.5q-50 0 -91.5 31t-72.5 83.5t-49 121t-20 142.5v11v12q2 74 20 142.5t49 121t72.5 83.5t91.5 31q37 0 63.5 -18.5t44 -45t26 -54.5t11.5 -47h-28q-6 25 -16 50.5t-24 45
t-33 32t-44 12.5q-27 0 -49.5 -12t-39 -49.5t-26 -107t-9.5 -184.5v-9v-6v-8q0 -115 9.5 -184.5t26 -107t39 -49.5t49.5 -12z" />
    <glyph glyph-name="D" unicode="D" horiz-adv-x="454" 
d="M149 25q46 0 74.5 34t44 86t20.5 113.5t5 115.5q0 85 -8.5 151.5t-27.5 112.5t-50.5 70t-76.5 24h-26v-707h45v0zM130 755q69 0 120 -28.5t85.5 -78t51.5 -115t17 -139.5q0 -65 -15.5 -134.5t-47.5 -127.5t-81.5 -95t-117.5 -37h-142v755h130v0z" />
    <glyph glyph-name="E" unicode="E" horiz-adv-x="368" 
d="M311 25v-25h-311v755h297v-25h-193v-327h129v-25h-129v-353h207z" />
    <glyph glyph-name="F" unicode="F" horiz-adv-x="356" 
d="M298 755v-25h-194v-334h129v-25h-129v-371h-104v755h298z" />
    <glyph glyph-name="G" unicode="G" horiz-adv-x="464" 
d="M233 -12q-50 0 -91.5 31t-72.5 83.5t-49 121t-20 142.5v11v12q2 74 20 142.5t49 121t72.5 83.5t91.5 31q37 0 63.5 -18.5t44 -45t26 -54.5t11.5 -47h-28q-6 25 -16 50.5t-24 45t-33 32t-44 12.5q-27 0 -49.5 -12t-39 -49.5t-26 -107t-9.5 -184.5v-9v-3v-3v-8
q0 -115 9.5 -184.5t26 -107t39 -49.5t49.5 -12q24 0 44 12q11 8 18 19.5t7 25.5v300h102v-188q-8 -56 -32.5 -100t-61.5 -69l-12 -6q-7 -5 -14 -8q-11 -5 -21 -7.5t-21 -3.5h-9z" />
    <glyph glyph-name="H" unicode="H" horiz-adv-x="419" 
d="M353 755v-755h-97v369h-158v-369h-98v755h98v-357h158v357h97z" />
    <glyph glyph-name="I" unicode="I" horiz-adv-x="162" 
d="M104 755v-755h-104v755h104z" />
    <glyph glyph-name="J" unicode="J" horiz-adv-x="412" 
d="M369 755v-516q0 -65 -5.5 -101t-20.5 -64q-50 -92 -170 -92q-61 0 -106 27t-66 74l23 9q17 -38 50.5 -61t78.5 -23q35 0 62 16.5t38 44.5q7 21 9.5 50t2.5 84v552h104z" />
    <glyph glyph-name="K" unicode="K" horiz-adv-x="423" 
d="M280 0l-137 383l-39 -73v-310h-104v755h104v-364l195 364h43l-129 -241l183 -514h-116z" />
    <glyph glyph-name="L" unicode="L" horiz-adv-x="363" 
d="M307 25v-25h-307v755h104v-730h203z" />
    <glyph glyph-name="M" unicode="M" horiz-adv-x="497" 
d="M446 755v-755h-104v611l-146 -611l-158 609v-609h-38v755h94h10l125 -481l108 481h109z" />
    <glyph glyph-name="N" unicode="N" horiz-adv-x="440" 
d="M325 755h36v-755h-31l-293 581v-581h-37v755h72l253 -515v515z" />
    <glyph glyph-name="O" unicode="O" horiz-adv-x="509" 
d="M0 381q0 78 16 148t46 123t71.5 84t92.5 31q52 0 94 -31t71.5 -84t45.5 -123t16 -148q0 -71 -15.5 -141t-45 -126t-71.5 -91t-95 -35t-95 34t-71 89.5t-44.5 126t-15.5 143.5zM109 376q0 -104 8 -173.5t23.5 -111.5t37 -60t48.5 -18t48.5 18t36.5 60t23.5 111.5
t8.5 173.5q0 103 -8.5 173t-23.5 112.5t-36.5 61t-48.5 18.5q-26 0 -47.5 -18.5t-37 -61t-24 -112.5t-8.5 -173z" />
    <glyph glyph-name="P" unicode="P" horiz-adv-x="404" 
d="M137 384q16 0 36 6t37 25t28.5 52.5t11.5 89.5q0 55 -11.5 89.5t-28.5 53.5t-37 25.5t-36 6.5h-33v-348h33v0zM351 604q2 -11 3 -27t1 -20v-3q0 -7 -0.5 -13.5t-1.5 -13.5q-5 -39 -21 -69.5t-40.5 -52t-57 -33t-68.5 -11.5h-62v-361h-104v361v389v5h166q69 0 120 -40
t65 -111z" />
    <glyph glyph-name="Q" unicode="Q" horiz-adv-x="514" 
d="M109 376q0 -104 8 -173.5t23.5 -111.5t37 -60t48.5 -18t48.5 18t36.5 60t23.5 111.5t8.5 173.5q0 103 -8.5 173t-23.5 112.5t-36.5 61t-48.5 18.5q-26 0 -47.5 -18.5t-37 -61t-24 -112.5t-8.5 -173zM453 381q0 -48 -7.5 -97t-21.5 -93t-34 -82.5t-46 -65.5l41 -116h-116
l-22 62q-5 -1 -10.5 -1h-10.5q-53 0 -95 34t-71 89.5t-44.5 126t-15.5 143.5q0 78 16 148t46 123t71.5 84t92.5 31q52 0 94 -31t71.5 -84t45.5 -123t16 -148z" />
    <glyph glyph-name="R" unicode="R" horiz-adv-x="439" 
d="M147 384q16 0 35.5 6t36.5 25t28.5 52.5t11.5 89.5q0 55 -11.5 89.5t-28.5 53.5t-36.5 25.5t-35.5 6.5h-34v-348h34zM290 0l-130 361h-47v-361h-103v750v5h166q69 0 119.5 -40t64.5 -111q2 -11 3 -27t1 -20v-3v-13.5t-1 -13.5q-6 -51 -31 -87.5t-63 -56.5l136 -383h-115z
" />
    <glyph glyph-name="S" unicode="S" horiz-adv-x="399" 
d="M123 536q25 -48 63.5 -88t75.5 -80.5t63.5 -86.5t26.5 -106q0 -12 -1.5 -23.5t-3.5 -22.5q-8 -35 -29 -64t-50 -48.5t-63.5 -26.5t-70.5 3q-56 15 -90 60.5t-44 99.5h28q6 -29 20.5 -55t35.5 -45.5t47.5 -30t58.5 -6.5q37 5 58.5 33t23.5 64q2 26 -4 50t-18 46
q-26 47 -64 84t-73 76q-38 42 -64.5 90t-26.5 106q0 39 12 78t38 70q25 29 61 44t74 9q30 -5 54 -20t42 -37.5t29 -50t15 -56.5h-28q-5 28 -16 54t-31 46q-22 23 -53 33.5t-61 -0.5t-44 -35t-15.5 -53t5.5 -59t19 -52z" />
    <glyph glyph-name="T" unicode="T" horiz-adv-x="442" 
d="M406 755v-22h-151v-733h-103v733h-151v22h405z" />
    <glyph glyph-name="U" unicode="U" horiz-adv-x="413" 
d="M334 755h38v-616q0 -32 -11 -60t-31 -48t-49.5 -31.5t-65.5 -11.5q-34 0 -71 7t-68 28t-51 58.5t-20 98.5v575h103v-598q0 -40 9.5 -66t25 -41.5t37 -21.5t45.5 -6q49 0 79 32.5t30 92.5v608z" />
    <glyph glyph-name="V" unicode="V" horiz-adv-x="400" 
d="M377 755l-148 -755h-104l-125 755h104l106 -644l126 644h41z" />
    <glyph glyph-name="W" unicode="W" horiz-adv-x="597" 
d="M560 755l-148 -755h-104l-36 220l-43 -220h-104l-125 755h104l106 -644l44 221l-71 423h104l107 -644l126 644h40z" />
    <glyph glyph-name="X" unicode="X" horiz-adv-x="413" 
d="M285 0l-112 296l-116 -296h-41l137 349l-153 406h110l99 -265l103 264h41l-125 -317l163 -437h-106z" />
    <glyph glyph-name="Y" unicode="Y" horiz-adv-x="460" 
d="M438 755l-168 -428v-327h-104v315l-166 440h110l140 -376l147 376h41z" />
    <glyph glyph-name="Z" unicode="Z" horiz-adv-x="454" 
d="M116 25h251v-25h-367l271 730h-233v25h353z" />
    <glyph glyph-name="bracketleft" unicode="[" horiz-adv-x="174" 
d="M103 0h-103v755h103v-23h-49v-707h49v-25z" />
    <glyph glyph-name="backslash" unicode="\" horiz-adv-x="297" 
d="M6 755h42l232 -755h-43z" />
    <glyph glyph-name="bracketright" unicode="]" horiz-adv-x="213" 
d="M0 25h49v707h-49v23h103v-755h-103v25z" />
    <glyph glyph-name="grave" unicode="`" horiz-adv-x="373" 
d="M189 813l-119 150h72l79 -150h-32z" />
    <glyph glyph-name="a" unicode="a" 
d="M229 272l-61 372l-73 -372h134zM378 0h-104l-40 243h-145l-48 -243h-40l148 755h104z" />
    <glyph glyph-name="b" unicode="b" horiz-adv-x="422" 
d="M155 23q51 0 76 46.5t25 123.5q0 63 -14 101t-33 58.5t-38.5 26.5t-29.5 6h-37v-360v-2h51v0zM104 410h39q19 0 36.5 12.5t31 34t21.5 52t8 66.5q0 56 -12 87.5t-29 47.5t-37 19.5t-36 3.5h-22v-323zM216 400q39 -8 67 -27.5t47 -47t28 -60.5t9 -69q0 -41 -15 -76.5
t-41 -62t-61 -42t-76 -15.5h-174v755h154q40 0 74.5 -9t60.5 -29t41 -51.5t15 -76.5q0 -32 -8 -63t-24 -57t-40.5 -44.5t-56.5 -24.5z" />
    <glyph glyph-name="c" unicode="c" horiz-adv-x="423" 
d="M233 13q25 0 44 12.5t33 32t24 44.5t16 51h28q-3 -19 -11.5 -47t-26 -54.5t-44 -45t-63.5 -18.5q-50 0 -91.5 31t-72.5 83.5t-49 121t-20 142.5v11v12q2 74 20 142.5t49 121t72.5 83.5t91.5 31q37 0 63.5 -18.5t44 -45t26 -54.5t11.5 -47h-28q-6 25 -16 50.5t-24 45
t-33 32t-44 12.5q-27 0 -49.5 -12t-39 -49.5t-26 -107t-9.5 -184.5v-9v-6v-8q0 -115 9.5 -184.5t26 -107t39 -49.5t49.5 -12z" />
    <glyph glyph-name="d" unicode="d" horiz-adv-x="454" 
d="M149 25q46 0 74.5 34t44 86t20.5 113.5t5 115.5q0 85 -8.5 151.5t-27.5 112.5t-50.5 70t-76.5 24h-26v-707h45v0zM130 755q69 0 120 -28.5t85.5 -78t51.5 -115t17 -139.5q0 -65 -15.5 -134.5t-47.5 -127.5t-81.5 -95t-117.5 -37h-142v755h130v0z" />
    <glyph glyph-name="e" unicode="e" horiz-adv-x="368" 
d="M311 25v-25h-311v755h297v-25h-193v-327h129v-25h-129v-353h207z" />
    <glyph glyph-name="f" unicode="f" horiz-adv-x="356" 
d="M298 755v-25h-194v-334h129v-25h-129v-371h-104v755h298z" />
    <glyph glyph-name="g" unicode="g" horiz-adv-x="464" 
d="M233 -12q-50 0 -91.5 31t-72.5 83.5t-49 121t-20 142.5v11v12q2 74 20 142.5t49 121t72.5 83.5t91.5 31q37 0 63.5 -18.5t44 -45t26 -54.5t11.5 -47h-28q-6 25 -16 50.5t-24 45t-33 32t-44 12.5q-27 0 -49.5 -12t-39 -49.5t-26 -107t-9.5 -184.5v-9v-3v-3v-8
q0 -115 9.5 -184.5t26 -107t39 -49.5t49.5 -12q24 0 44 12q11 8 18 19.5t7 25.5v300h102v-188q-8 -56 -32.5 -100t-61.5 -69l-12 -6q-7 -5 -14 -8q-11 -5 -21 -7.5t-21 -3.5h-9z" />
    <glyph glyph-name="h" unicode="h" horiz-adv-x="419" 
d="M353 755v-755h-97v369h-158v-369h-98v755h98v-357h158v357h97z" />
    <glyph glyph-name="i" unicode="i" horiz-adv-x="162" 
d="M104 755v-755h-104v755h104z" />
    <glyph glyph-name="j" unicode="j" horiz-adv-x="412" 
d="M369 755v-516q0 -65 -5.5 -101t-20.5 -64q-50 -92 -170 -92q-61 0 -106 27t-66 74l23 9q17 -38 50.5 -61t78.5 -23q35 0 62 16.5t38 44.5q7 21 9.5 50t2.5 84v552h104z" />
    <glyph glyph-name="k" unicode="k" horiz-adv-x="423" 
d="M280 0l-137 383l-39 -73v-310h-104v755h104v-364l195 364h43l-129 -241l183 -514h-116z" />
    <glyph glyph-name="l" unicode="l" horiz-adv-x="363" 
d="M307 25v-25h-307v755h104v-730h203z" />
    <glyph glyph-name="m" unicode="m" horiz-adv-x="497" 
d="M446 755v-755h-104v611l-146 -611l-158 609v-609h-38v755h94h10l125 -481l108 481h109z" />
    <glyph glyph-name="n" unicode="n" horiz-adv-x="440" 
d="M325 755h36v-755h-31l-293 581v-581h-37v755h72l253 -515v515z" />
    <glyph glyph-name="o" unicode="o" horiz-adv-x="509" 
d="M0 381q0 78 16 148t46 123t71.5 84t92.5 31q52 0 94 -31t71.5 -84t45.5 -123t16 -148q0 -71 -15.5 -141t-45 -126t-71.5 -91t-95 -35t-95 34t-71 89.5t-44.5 126t-15.5 143.5zM109 376q0 -104 8 -173.5t23.5 -111.5t37 -60t48.5 -18t48.5 18t36.5 60t23.5 111.5
t8.5 173.5q0 103 -8.5 173t-23.5 112.5t-36.5 61t-48.5 18.5q-26 0 -47.5 -18.5t-37 -61t-24 -112.5t-8.5 -173z" />
    <glyph glyph-name="p" unicode="p" horiz-adv-x="404" 
d="M137 384q16 0 36 6t37 25t28.5 52.5t11.5 89.5q0 55 -11.5 89.5t-28.5 53.5t-37 25.5t-36 6.5h-33v-348h33v0zM351 604q2 -11 3 -27t1 -20v-3q0 -7 -0.5 -13.5t-1.5 -13.5q-5 -39 -21 -69.5t-40.5 -52t-57 -33t-68.5 -11.5h-62v-361h-104v361v389v5h166q69 0 120 -40
t65 -111z" />
    <glyph glyph-name="q" unicode="q" horiz-adv-x="514" 
d="M109 376q0 -104 8 -173.5t23.5 -111.5t37 -60t48.5 -18t48.5 18t36.5 60t23.5 111.5t8.5 173.5q0 103 -8.5 173t-23.5 112.5t-36.5 61t-48.5 18.5q-26 0 -47.5 -18.5t-37 -61t-24 -112.5t-8.5 -173zM453 381q0 -48 -7.5 -97t-21.5 -93t-34 -82.5t-46 -65.5l41 -116h-116
l-22 62q-5 -1 -10.5 -1h-10.5q-53 0 -95 34t-71 89.5t-44.5 126t-15.5 143.5q0 78 16 148t46 123t71.5 84t92.5 31q52 0 94 -31t71.5 -84t45.5 -123t16 -148z" />
    <glyph glyph-name="r" unicode="r" horiz-adv-x="439" 
d="M147 384q16 0 35.5 6t36.5 25t28.5 52.5t11.5 89.5q0 55 -11.5 89.5t-28.5 53.5t-36.5 25.5t-35.5 6.5h-34v-348h34zM290 0l-130 361h-47v-361h-103v750v5h166q69 0 119.5 -40t64.5 -111q2 -11 3 -27t1 -20v-3v-13.5t-1 -13.5q-6 -51 -31 -87.5t-63 -56.5l136 -383h-115z
" />
    <glyph glyph-name="s" unicode="s" horiz-adv-x="399" 
d="M123 536q25 -48 63.5 -88t75.5 -80.5t63.5 -86.5t26.5 -106q0 -12 -1.5 -23.5t-3.5 -22.5q-8 -35 -29 -64t-50 -48.5t-63.5 -26.5t-70.5 3q-56 15 -90 60.5t-44 99.5h28q6 -29 20.5 -55t35.5 -45.5t47.5 -30t58.5 -6.5q37 5 58.5 33t23.5 64q2 26 -4 50t-18 46
q-26 47 -64 84t-73 76q-38 42 -64.5 90t-26.5 106q0 39 12 78t38 70q25 29 61 44t74 9q30 -5 54 -20t42 -37.5t29 -50t15 -56.5h-28q-5 28 -16 54t-31 46q-22 23 -53 33.5t-61 -0.5t-44 -35t-15.5 -53t5.5 -59t19 -52z" />
    <glyph glyph-name="t" unicode="t" horiz-adv-x="442" 
d="M406 755v-22h-151v-733h-103v733h-151v22h405z" />
    <glyph glyph-name="u" unicode="u" horiz-adv-x="413" 
d="M334 755h38v-616q0 -32 -11 -60t-31 -48t-49.5 -31.5t-65.5 -11.5q-34 0 -71 7t-68 28t-51 58.5t-20 98.5v575h103v-598q0 -40 9.5 -66t25 -41.5t37 -21.5t45.5 -6q49 0 79 32.5t30 92.5v608z" />
    <glyph glyph-name="v" unicode="v" horiz-adv-x="400" 
d="M377 755l-148 -755h-104l-125 755h104l106 -644l126 644h41z" />
    <glyph glyph-name="w" unicode="w" horiz-adv-x="597" 
d="M560 755l-148 -755h-104l-36 220l-43 -220h-104l-125 755h104l106 -644l44 221l-71 423h104l107 -644l126 644h40z" />
    <glyph glyph-name="x" unicode="x" horiz-adv-x="413" 
d="M285 0l-112 296l-116 -296h-41l137 349l-153 406h110l99 -265l103 264h41l-125 -317l163 -437h-106z" />
    <glyph glyph-name="y" unicode="y" horiz-adv-x="460" 
d="M438 755l-168 -428v-327h-104v315l-166 440h110l140 -376l147 376h41z" />
    <glyph glyph-name="z" unicode="z" horiz-adv-x="454" 
d="M116 25h251v-25h-367l271 730h-233v25h353z" />
    <glyph glyph-name="bar" unicode="|" horiz-adv-x="157" 
d="M54 755v-755h-54v755h54z" />
    <glyph glyph-name="asciitilde" unicode="~" horiz-adv-x="400" 
d="M352 500q-14 -50 -40 -67.5t-55 -17.5q-21 0 -38 7t-33.5 15.5t-34 15.5t-39.5 7q-11 0 -28 -5t-29 -26h-27q8 25 21 40.5t27.5 24t28.5 11t24 2.5q21 0 37.5 -6t33 -13.5t33.5 -13.5t40 -6q10 0 23.5 5t28.5 27h27z" />
    <glyph glyph-name="Adieresis" unicode="&#xc4;" horiz-adv-x="541" 
d="M126 916q22 0 37 -15t15 -37t-15 -37t-37 -15t-37 15t-15 37t15 37t37 15zM274 916q22 0 37.5 -15t15.5 -37t-15.5 -37t-37.5 -15t-37 15t-15 37t15 37t37 15zM229 272l-61 372l-73 -372h134zM378 0h-104l-40 243h-145l-48 -243h-40l148 755h104z" />
    <glyph glyph-name="Aring" unicode="&#xc5;" horiz-adv-x="450" 
d="M247 272l-62 372l-72 -372h134zM219 836q-17 0 -28.5 -12t-11.5 -29t11.5 -28.5t28.5 -11.5t28.5 11.5t11.5 28.5t-11.5 29t-28.5 12zM396 0h-104l-40 243h-145l-48 -243h-40l146 748q-18 20 -18 47q0 30 21 51t51 21q29 0 50 -21t21 -51q0 -27 -18 -48z" />
    <glyph glyph-name="Ccedilla" unicode="&#xc7;" horiz-adv-x="461" 
d="M378 153q-2 -18 -10.5 -45t-24.5 -52.5t-40.5 -45t-59.5 -22.5v-31q32 -2 54.5 -25t22.5 -55q0 -33 -23.5 -56.5t-56.5 -23.5q-20 0 -37 9t-28 25l26 17q15 -20 39 -20q20 0 34.5 14.5t14.5 34.5t-14.5 34.5t-34.5 14.5h-17v62q-48 3 -88 35.5t-69 84.5t-46.5 119
t-19.5 139v11v12q2 74 20 142.5t49 121t72.5 83.5t91.5 31q37 0 63.5 -18.5t44 -45t26 -54.5t11.5 -47h-28q-6 25 -16 50.5t-24 45t-33 32t-44 12.5q-27 0 -49.5 -12t-39 -49.5t-26 -107t-9.5 -184.5v-9v-6v-8q0 -115 9.5 -184.5t26 -107t39 -49.5t49.5 -12q25 0 44 12.5
t33 32t24 44.5t16 51h28v0z" />
    <glyph glyph-name="Eacute" unicode="&#xc9;" horiz-adv-x="368" 
d="M311 25v-25h-311v755h297v-25h-193v-327h129v-25h-129v-353h207zM108 813l79 150h72l-119 -150h-32z" />
    <glyph glyph-name="Ntilde" unicode="&#xd1;" horiz-adv-x="400" 
d="M325 755h36v-755h-31l-293 581v-581h-37v755h72l253 -515v515zM343 888q-14 -50 -40 -67.5t-55 -17.5q-21 0 -38 7t-33.5 15.5t-34 15.5t-39.5 7q-11 0 -28 -5t-29 -26h-27q8 25 21 40.5t27.5 24t28.5 11t24 2.5q21 0 37.5 -6t33 -13.5t33.5 -13.5t40 -6q10 0 23.5 5
t28.5 27h27z" />
    <glyph glyph-name="Odieresis" unicode="&#xd6;" horiz-adv-x="509" 
d="M0 381q0 78 16 148t46 123t71.5 84t92.5 31q52 0 94 -31t71.5 -84t45.5 -123t16 -148q0 -71 -15.5 -141t-45 -126t-71.5 -91t-95 -35t-95 34t-71 89.5t-44.5 126t-15.5 143.5zM109 376q0 -104 8 -173.5t23.5 -111.5t37 -60t48.5 -18t48.5 18t36.5 60t23.5 111.5
t8.5 173.5q0 103 -8.5 173t-23.5 112.5t-36.5 61t-48.5 18.5q-26 0 -47.5 -18.5t-37 -61t-24 -112.5t-8.5 -173zM155 916q22 0 37 -15t15 -37t-15 -37t-37 -15t-37 15t-15 37t15 37t37 15zM303 916q22 0 37.5 -15t15.5 -37t-15.5 -37t-37.5 -15t-37 15t-15 37t15 37t37 15z
" />
    <glyph glyph-name="Udieresis" unicode="&#xdc;" horiz-adv-x="413" 
d="M334 755h38v-616q0 -32 -11 -60t-31 -48t-49.5 -31.5t-65.5 -11.5q-34 0 -71 7t-68 28t-51 58.5t-20 98.5v575h103v-598q0 -40 9.5 -66t25 -41.5t37 -21.5t45.5 -6q49 0 79 32.5t30 92.5v608zM116 916q22 0 37 -15t15 -37t-15 -37t-37 -15t-37 15t-15 37t15 37t37 15z
M264 916q22 0 37.5 -15t15.5 -37t-15.5 -37t-37.5 -15t-37 15t-15 37t15 37t37 15z" />
    <glyph glyph-name="aacute" unicode="&#xe1;" 
d="M229 272l-61 372l-73 -372h134zM378 0h-104l-40 243h-145l-48 -243h-40l148 755h104zM129 813l79 150h72l-119 -150h-32z" />
    <glyph glyph-name="agrave" unicode="&#xe0;" 
d="M229 272l-61 372l-73 -372h134zM378 0h-104l-40 243h-145l-48 -243h-40l148 755h104zM209 813l-119 150h72l79 -150h-32z" />
    <glyph glyph-name="acircumflex" unicode="&#xe2;" 
d="M229 272l-61 372l-73 -372h134zM378 0h-104l-40 243h-145l-48 -243h-40l148 755h104zM117 813h-22l67 150h69l67 -150h-23l-79 117z" />
    <glyph glyph-name="adieresis" unicode="&#xe4;" horiz-adv-x="541" 
d="M126 916q22 0 37 -15t15 -37t-15 -37t-37 -15t-37 15t-15 37t15 37t37 15zM274 916q22 0 37.5 -15t15.5 -37t-15.5 -37t-37.5 -15t-37 15t-15 37t15 37t37 15zM229 272l-61 372l-73 -372h134zM378 0h-104l-40 243h-145l-48 -243h-40l148 755h104z" />
    <glyph glyph-name="atilde" unicode="&#xe3;" 
d="M229 272l-61 372l-73 -372h134zM378 0h-104l-40 243h-145l-48 -243h-40l148 755h104z" />
    <glyph glyph-name="aring" unicode="&#xe5;" horiz-adv-x="450" 
d="M247 272l-62 372l-72 -372h134zM219 836q-17 0 -28.5 -12t-11.5 -29t11.5 -28.5t28.5 -11.5t28.5 11.5t11.5 28.5t-11.5 29t-28.5 12zM396 0h-104l-40 243h-145l-48 -243h-40l146 748q-18 20 -18 47q0 30 21 51t51 21q29 0 50 -21t21 -51q0 -27 -18 -48z" />
    <glyph glyph-name="ccedilla" unicode="&#xe7;" horiz-adv-x="461" 
d="M378 153q-2 -18 -10.5 -45t-24.5 -52.5t-40.5 -45t-59.5 -22.5v-31q32 -2 54.5 -25t22.5 -55q0 -33 -23.5 -56.5t-56.5 -23.5q-20 0 -37 9t-28 25l26 17q15 -20 39 -20q20 0 34.5 14.5t14.5 34.5t-14.5 34.5t-34.5 14.5h-17v62q-48 3 -88 35.5t-69 84.5t-46.5 119
t-19.5 139v11v12q2 74 20 142.5t49 121t72.5 83.5t91.5 31q37 0 63.5 -18.5t44 -45t26 -54.5t11.5 -47h-28q-6 25 -16 50.5t-24 45t-33 32t-44 12.5q-27 0 -49.5 -12t-39 -49.5t-26 -107t-9.5 -184.5v-9v-6v-8q0 -115 9.5 -184.5t26 -107t39 -49.5t49.5 -12q25 0 44 12.5
t33 32t24 44.5t16 51h28v0z" />
    <glyph glyph-name="eacute" unicode="&#xe9;" horiz-adv-x="368" 
d="M104 25v353h129v25h-129v327h193v25h-297v-755h311v25h-207zM108 813l79 150h72l-119 -150h-32z" />
    <glyph glyph-name="egrave" unicode="&#xe8;" horiz-adv-x="368" 
d="M311 25v-25h-311v755h297v-25h-193v-327h129v-25h-129v-353h207zM189 813l-119 150h72l79 -150h-32z" />
    <glyph glyph-name="ecircumflex" unicode="&#xea;" horiz-adv-x="368" 
d="M57 813h-22l67 150h69l67 -150h-23l-79 117zM311 25v-25h-311v755h297v-25h-193v-327h129v-25h-129v-353h207z" />
    <glyph glyph-name="edieresis" unicode="&#xeb;" horiz-adv-x="370" 
d="M76 916q22 0 37 -15t15 -37t-15 -37t-37 -15t-37 15t-15 37t15 37t37 15zM224 916q22 0 37.5 -15t15.5 -37t-15.5 -37t-37.5 -15t-37 15t-15 37t15 37t37 15zM311 25v-25h-311v755h297v-25h-193v-327h129v-25h-129v-353h207z" />
    <glyph glyph-name="iacute" unicode="&#xed;" horiz-adv-x="162" 
d="M104 755v-755h-104v755h104z" />
    <glyph glyph-name="igrave" unicode="&#xec;" horiz-adv-x="162" 
d="M104 755v-755h-104v755h104z" />
    <glyph glyph-name="icircumflex" unicode="&#xee;" horiz-adv-x="541" 
d="M-28 813h-22l67 150h69l67 -150h-23l-79 117zM104 755v-755h-104v755h104z" />
    <glyph glyph-name="idieresis" unicode="&#xef;" horiz-adv-x="162" 
d="M104 755v-755h-104v755h104z" />
    <glyph glyph-name="ntilde" unicode="&#xf1;" horiz-adv-x="440" 
d="M325 755h36v-755h-31l-293 581v-581h-37v755h72l253 -515v515zM352 888q-14 -50 -40 -67.5t-55 -17.5q-21 0 -38 7t-33.5 15.5t-34 15.5t-39.5 7q-11 0 -28 -5t-29 -26h-27q8 25 21 40.5t27.5 24t28.5 11t24 2.5q21 0 37.5 -6t33 -13.5t33.5 -13.5t40 -6q10 0 23.5 5
t28.5 27h27z" />
    <glyph glyph-name="oacute" unicode="&#xf3;" horiz-adv-x="541" 
d="M178 817l79 150h72l-119 -150h-32zM0 381q0 78 16 148t46 123t71.5 84t92.5 31q52 0 94 -31t71.5 -84t45.5 -123t16 -148q0 -71 -15.5 -141t-45 -126t-71.5 -91t-95 -35t-95 34t-71 89.5t-44.5 126t-15.5 143.5zM109 376q0 -104 8 -173.5t23.5 -111.5t37 -60t48.5 -18
t48.5 18t36.5 60t23.5 111.5t8.5 173.5q0 103 -8.5 173t-23.5 112.5t-36.5 61t-48.5 18.5q-26 0 -47.5 -18.5t-37 -61t-24 -112.5t-8.5 -173z" />
    <glyph glyph-name="ograve" unicode="&#xf2;" horiz-adv-x="509" 
d="M0 381q0 78 16 148t46 123t71.5 84t92.5 31q52 0 94 -31t71.5 -84t45.5 -123t16 -148q0 -71 -15.5 -141t-45 -126t-71.5 -91t-95 -35t-95 34t-71 89.5t-44.5 126t-15.5 143.5zM109 376q0 -104 8 -173.5t23.5 -111.5t37 -60t48.5 -18t48.5 18t36.5 60t23.5 111.5
t8.5 173.5q0 103 -8.5 173t-23.5 112.5t-36.5 61t-48.5 18.5q-26 0 -47.5 -18.5t-37 -61t-24 -112.5t-8.5 -173zM242 813l-119 150h72l79 -150h-32z" />
    <glyph glyph-name="ocircumflex" unicode="&#xf4;" horiz-adv-x="509" 
d="M0 381q0 78 16 148t46 123t71.5 84t92.5 31q52 0 94 -31t71.5 -84t45.5 -123t16 -148q0 -71 -15.5 -141t-45 -126t-71.5 -91t-95 -35t-95 34t-71 89.5t-44.5 126t-15.5 143.5zM109 376q0 -104 8 -173.5t23.5 -111.5t37 -60t48.5 -18t48.5 18t36.5 60t23.5 111.5
t8.5 173.5q0 103 -8.5 173t-23.5 112.5t-36.5 61t-48.5 18.5q-26 0 -47.5 -18.5t-37 -61t-24 -112.5t-8.5 -173zM146 813h-22l67 150h69l67 -150h-23l-79 117z" />
    <glyph glyph-name="odieresis" unicode="&#xf6;" horiz-adv-x="509" 
d="M0 381q0 78 16 148t46 123t71.5 84t92.5 31q52 0 94 -31t71.5 -84t45.5 -123t16 -148q0 -71 -15.5 -141t-45 -126t-71.5 -91t-95 -35t-95 34t-71 89.5t-44.5 126t-15.5 143.5zM109 376q0 -104 8 -173.5t23.5 -111.5t37 -60t48.5 -18t48.5 18t36.5 60t23.5 111.5
t8.5 173.5q0 103 -8.5 173t-23.5 112.5t-36.5 61t-48.5 18.5q-26 0 -47.5 -18.5t-37 -61t-24 -112.5t-8.5 -173zM155 916q22 0 37 -15t15 -37t-15 -37t-37 -15t-37 15t-15 37t15 37t37 15zM303 916q22 0 37.5 -15t15.5 -37t-15.5 -37t-37.5 -15t-37 15t-15 37t15 37t37 15z
" />
    <glyph glyph-name="otilde" unicode="&#xf5;" horiz-adv-x="509" 
d="M0 381q0 78 16 148t46 123t71.5 84t92.5 31q52 0 94 -31t71.5 -84t45.5 -123t16 -148q0 -71 -15.5 -141t-45 -126t-71.5 -91t-95 -35t-95 34t-71 89.5t-44.5 126t-15.5 143.5zM109 376q0 -104 8 -173.5t23.5 -111.5t37 -60t48.5 -18t48.5 18t36.5 60t23.5 111.5
t8.5 173.5q0 103 -8.5 173t-23.5 112.5t-36.5 61t-48.5 18.5q-26 0 -47.5 -18.5t-37 -61t-24 -112.5t-8.5 -173zM392 930q-14 -50 -40 -67.5t-55 -17.5q-21 0 -38 7t-33.5 15.5t-34 15.5t-39.5 7q-11 0 -28 -5t-29 -26h-27q8 25 21 40.5t27.5 24t28.5 11t24 2.5
q21 0 37.5 -6t33 -13.5t33.5 -13.5t40 -6q10 0 23.5 5t28.5 27h27z" />
    <glyph glyph-name="uacute" unicode="&#xfa;" horiz-adv-x="413" 
d="M334 755h38v-616q0 -32 -11 -60t-31 -48t-49.5 -31.5t-65.5 -11.5q-34 0 -71 7t-68 28t-51 58.5t-20 98.5v575h103v-598q0 -40 9.5 -66t25 -41.5t37 -21.5t45.5 -6q49 0 79 32.5t30 92.5v608zM128 813l79 150h72l-119 -150h-32z" />
    <glyph glyph-name="ugrave" unicode="&#xf9;" horiz-adv-x="413" 
d="M334 755h38v-616q0 -32 -11 -60t-31 -48t-49.5 -31.5t-65.5 -11.5q-34 0 -71 7t-68 28t-51 58.5t-20 98.5v575h103v-598q0 -40 9.5 -66t25 -41.5t37 -21.5t45.5 -6q49 0 79 32.5t30 92.5v608zM217 813l-119 150h72l79 -150h-32z" />
    <glyph glyph-name="ucircumflex" unicode="&#xfb;" horiz-adv-x="413" 
d="M334 755h38v-616q0 -32 -11 -60t-31 -48t-49.5 -31.5t-65.5 -11.5q-34 0 -71 7t-68 28t-51 58.5t-20 98.5v575h103v-598q0 -40 9.5 -66t25 -41.5t37 -21.5t45.5 -6q49 0 79 32.5t30 92.5v608zM127 813h-22l67 150h69l67 -150h-23l-79 117z" />
    <glyph glyph-name="udieresis" unicode="&#xfc;" horiz-adv-x="413" 
d="M334 755h38v-616q0 -32 -11 -60t-31 -48t-49.5 -31.5t-65.5 -11.5q-34 0 -71 7t-68 28t-51 58.5t-20 98.5v575h103v-598q0 -40 9.5 -66t25 -41.5t37 -21.5t45.5 -6q49 0 79 32.5t30 92.5v608zM116 916q22 0 37 -15t15 -37t-15 -37t-37 -15t-37 15t-15 37t15 37t37 15z
M264 916q22 0 37.5 -15t15.5 -37t-15.5 -37t-37.5 -15t-37 15t-15 37t15 37t37 15z" />
    <glyph glyph-name="bullet" unicode="&#x2022;" horiz-adv-x="232" 
d="M102 485q19 0 36.5 -7.5t30.5 -20t20.5 -30t7.5 -36.5q0 -20 -7.5 -37t-20.5 -30t-30.5 -20.5t-36.5 -7.5q-20 0 -37 7.5t-29.5 20.5t-20 30t-7.5 37q0 19 7.5 36.5t20 30t29.5 20t37 7.5z" />
    <glyph glyph-name="germandbls" unicode="&#xdf;" horiz-adv-x="485" 
d="M204 411q39 -8 70.5 -27.5t53.5 -47t34 -60.5t12 -69q0 -41 -15 -78t-41 -66t-61 -46t-76 -17h-19v23q25 0 44.5 14t32 38.5t19 57.5t6.5 71q0 56 -11 92t-27 57.5t-33.5 30.5t-30.5 11v28q17 3 32.5 18t27 37.5t18.5 52.5t7 63q0 39 -6.5 67t-17.5 45t-25 25t-28 8
q-9 0 -20.5 -2.5t-21.5 -10.5t-16.5 -23.5t-6.5 -41.5v-661h-103v628q0 35 15 61t39.5 43.5t56.5 26t67 8.5q33 0 64 -10.5t55 -31.5t38.5 -52.5t14.5 -72.5q0 -32 -11 -63t-30.5 -57t-46.5 -44.5t-60 -24.5z" />
    <glyph glyph-name="acute" unicode="&#xb4;" horiz-adv-x="358" 
d="M108 813l79 150h72l-119 -150h-32z" />
    <glyph glyph-name="dieresis" unicode="&#xa8;" horiz-adv-x="541" 
d="M155 916q22 0 37 -15t15 -37t-15 -37t-37 -15t-37 15t-15 37t15 37t37 15zM303 916q22 0 37.5 -15t15.5 -37t-15.5 -37t-37.5 -15t-37 15t-15 37t15 37t37 15z" />
    <glyph glyph-name="AE" unicode="&#xc6;" horiz-adv-x="672" 
d="M290 684l-151 -412h151v412zM601 25v-25h-311v0v0v243h-161l-88 -243h-41l274 755h58v0h255v-25h-193v-327h129v-25h-129v-353h207z" />
    <glyph glyph-name="Oslash" unicode="&#xd8;" horiz-adv-x="500" 
d="M226 14q27 0 48.5 17.5t36.5 59.5t23.5 111.5t8.5 173.5q0 82 -5 142.5t-15 103.5l-171 -557q14 -28 32.5 -39.5t41.5 -11.5zM109 376q0 -82 5 -142.5t15 -102.5l171 557q-14 29 -32.5 41.5t-41.5 12.5q-26 0 -47.5 -18.5t-37 -61.5t-24 -113t-8.5 -173zM350 710
q49 -52 76 -138.5t27 -189.5q0 -71 -15.5 -141.5t-45 -126.5t-71.5 -91t-95 -35q-25 0 -47 7.5t-42 21.5l-5 -17h-43l15 47q-25 28 -44.5 65.5t-32.5 81t-20 91.5t-7 97q0 78 16 147.5t46 122.5t71.5 84t92.5 31q48 0 90 -28l5 16h43l-14 -45v0z" />
    <glyph glyph-name="integral" unicode="&#x222b;" horiz-adv-x="400" 
 />
    <glyph glyph-name="ae" unicode="&#xe6;" horiz-adv-x="672" 
d="M290 684l-151 -412h151v412zM601 25v-25h-311v0v0v243h-161l-88 -243h-41l274 755h58v0h255v-25h-193v-327h129v-25h-129v-353h207z" />
    <glyph glyph-name="oslash" unicode="&#xf8;" horiz-adv-x="500" 
d="M226 14q27 0 48.5 17.5t36.5 59.5t23.5 111.5t8.5 173.5q0 82 -5 142.5t-15 103.5l-171 -557q14 -28 32.5 -39.5t41.5 -11.5zM109 376q0 -82 5 -142.5t15 -102.5l171 557q-14 29 -32.5 41.5t-41.5 12.5q-26 0 -47.5 -18.5t-37 -61.5t-24 -113t-8.5 -173zM350 710
q49 -52 76 -138.5t27 -189.5q0 -71 -15.5 -141.5t-45 -126.5t-71.5 -91t-95 -35q-25 0 -47 7.5t-42 21.5l-5 -17h-43l15 47q-25 28 -44.5 65.5t-32.5 81t-20 91.5t-7 97q0 78 16 147.5t46 122.5t71.5 84t92.5 31q48 0 90 -28l5 16h43l-14 -45v0z" />
    <glyph glyph-name="questiondown" unicode="&#xbf;" horiz-adv-x="485" 
d="M233 -9q-5 -1 -10.5 -1.5t-10.5 -1.5q-7 -1 -10 -0.5t-7 0.5h-10.5t-10.5 1q-30 4 -54 19.5t-42 38t-29 50t-15 56.5h28q5 -28 16 -54t31 -46t47 -31t54 -6q22 4 37 16.5t24 30.5t13 39.5t4 45.5q0 45 -9 78t-22.5 59.5t-29.5 50.5t-29.5 50.5t-22.5 59t-9 77.5
q0 6 0.5 12.5t0.5 13.5h24q1 -56 15.5 -95.5t35.5 -70t46 -55.5t46 -51t35 -56.5t14 -71.5q0 -37 -12 -64.5t-32.5 -47t-47.5 -31t-58 -15.5zM184 663q-22 0 -37 15t-15 37t15 37.5t37 15.5t37.5 -15.5t15.5 -37.5t-15.5 -37t-37.5 -15z" />
    <glyph glyph-name="exclamdown" unicode="&#xa1;" horiz-adv-x="209" 
d="M0 0v1l30 574h48l29 -575h-107zM54 663q-22 0 -37.5 15t-15.5 37t15.5 37t37.5 15t37 -15t15 -37t-15 -37t-37 -15z" />
    <glyph glyph-name="Agrave" unicode="&#xc0;" 
d="M229 272l-61 372l-73 -372h134zM378 0h-104l-40 243h-145l-48 -243h-40l148 755h104zM219 813l-119 150h72l79 -150h-32z" />
    <glyph glyph-name="Atilde" unicode="&#xc3;" 
d="M229 272l-61 372l-73 -372h134zM378 0h-104l-40 243h-145l-48 -243h-40l148 755h104zM362 888q-14 -50 -40 -67.5t-55 -17.5q-21 0 -38 7t-33.5 15.5t-34 15.5t-39.5 7q-11 0 -28 -5t-29 -26h-27q8 25 21 40.5t27.5 24t28.5 11t24 2.5q21 0 37.5 -6t33 -13.5t33.5 -13.5
t40 -6q10 0 23.5 5t28.5 27h27z" />
    <glyph glyph-name="Otilde" unicode="&#xd5;" horiz-adv-x="509" 
d="M0 381q0 78 16 148t46 123t71.5 84t92.5 31q52 0 94 -31t71.5 -84t45.5 -123t16 -148q0 -71 -15.5 -141t-45 -126t-71.5 -91t-95 -35t-95 34t-71 89.5t-44.5 126t-15.5 143.5zM109 376q0 -104 8 -173.5t23.5 -111.5t37 -60t48.5 -18t48.5 18t36.5 60t23.5 111.5
t8.5 173.5q0 103 -8.5 173t-23.5 112.5t-36.5 61t-48.5 18.5q-26 0 -47.5 -18.5t-37 -61t-24 -112.5t-8.5 -173zM392 888q-14 -50 -40 -67.5t-55 -17.5q-21 0 -38 7t-33.5 15.5t-34 15.5t-39.5 7q-11 0 -28 -5t-29 -26h-27q8 25 21 40.5t27.5 24t28.5 11t24 2.5
q21 0 37.5 -6t33 -13.5t33.5 -13.5t40 -6q10 0 23.5 5t28.5 27h27z" />
    <glyph glyph-name="OE" unicode="&#x152;" horiz-adv-x="697" 
d="M226 13q27 0 48.5 18t36.5 60t23.5 111.5t8.5 173.5q0 103 -8.5 173t-23.5 113t-36.5 61.5t-48.5 18.5q-26 0 -47.5 -18.5t-37 -61.5t-24 -113t-8.5 -173q0 -104 8 -173.5t23.5 -111.5t37 -60t48.5 -18zM658 25v-25h-310v47q-26 -28 -56.5 -43.5t-65.5 -15.5
q-53 0 -95 34t-71 89.5t-44.5 126t-15.5 143.5q0 78 16 148t46 123t71.5 84t92.5 31q35 0 65.5 -14.5t56.5 -40.5v43h297v-25h-193v-307v-20h129v-25h-128q0 -9 -0.5 -18t-0.5 -18v-317h206z" />
    <glyph glyph-name="oe" unicode="&#x153;" horiz-adv-x="697" 
d="M226 13q27 0 48.5 18t36.5 60t23.5 111.5t8.5 173.5q0 103 -8.5 173t-23.5 113t-36.5 61.5t-48.5 18.5q-26 0 -47.5 -18.5t-37 -61.5t-24 -113t-8.5 -173q0 -104 8 -173.5t23.5 -111.5t37 -60t48.5 -18zM658 25v-25h-310v47q-26 -28 -56.5 -43.5t-65.5 -15.5
q-53 0 -95 34t-71 89.5t-44.5 126t-15.5 143.5q0 78 16 148t46 123t71.5 84t92.5 31q35 0 65.5 -14.5t56.5 -40.5v43h297v-25h-193v-307v-20h129v-25h-128q0 -9 -0.5 -18t-0.5 -18v-317h206z" />
    <glyph glyph-name="endash" unicode="&#x2013;" horiz-adv-x="363" 
d="M327 334h-327v64h327v-64z" />
    <glyph glyph-name="emdash" unicode="&#x2014;" horiz-adv-x="583" 
d="M545 334h-545v64h545v-64z" />
    <glyph glyph-name="quotedblleft" unicode="&#x201c;" horiz-adv-x="255" 
d="M7 628q-1 2 -3 11.5t-2 18.5q0 20 7.5 40t19 35.5t26.5 25.5t30 10v-22q-16 -5 -31.5 -20t-20.5 -32q12 5 23 5q22 0 37 -15.5t15 -37.5t-15 -37t-37 -15q-17 0 -30 9.5t-19 23.5zM133 628q-2 2 -4 11.5t-2 18.5q0 20 7.5 40t19 35.5t26.5 25.5t31 10v-22
q-17 -5 -32.5 -20t-19.5 -32q12 5 22 5q22 0 37.5 -15.5t15.5 -37.5t-15.5 -37t-37.5 -15q-17 0 -30 9.5t-18 23.5z" />
    <glyph glyph-name="quotedblright" unicode="&#x201d;" horiz-adv-x="255" 
d="M228 736q2 -2 4 -11.5t2 -18.5q0 -20 -7.5 -40t-19 -36t-26.5 -25.5t-31 -9.5v22q17 5 32.5 20t19.5 32q-12 -5 -22 -5q-22 0 -37.5 15.5t-15.5 37.5t15.5 37t37.5 15q17 0 30 -9.5t18 -23.5zM103 736q2 -2 4 -11.5t1 -18.5q0 -20 -7 -40t-18.5 -36t-26.5 -25.5t-31 -9.5
v22q16 5 31.5 20t20.5 32q-12 -5 -23 -5q-22 0 -37 15.5t-15 37.5t15 37t37 15q17 0 30 -9.5t19 -23.5z" />
    <glyph glyph-name="quoteleft" unicode="&#x2018;" horiz-adv-x="199" 
d="M7 628q-1 2 -3 11.5t-2 18.5q0 20 7.5 40t19 35.5t26.5 25.5t30 10v-22q-16 -5 -31.5 -20t-20.5 -32q12 5 23 5q22 0 37 -15.5t15 -37.5t-15 -37t-37 -15q-17 0 -30 9.5t-19 23.5z" />
    <glyph glyph-name="quoteright" unicode="&#x2019;" horiz-adv-x="174" 
d="M103 736q2 -2 4 -11.5t1 -18.5q0 -20 -7 -40t-18.5 -36t-26.5 -25.5t-31 -9.5v22q16 5 31.5 20t20.5 32q-12 -5 -23 -5q-22 0 -37 15.5t-15 37.5t15 37t37 15q17 0 30 -9.5t19 -23.5z" />
    <glyph glyph-name="ydieresis" unicode="&#xff;" horiz-adv-x="460" 
d="M438 755l-168 -428v-327h-104v315l-166 440h110l140 -376l147 376h41zM155 916q22 0 37 -15t15 -37t-15 -37t-37 -15t-37 15t-15 37t15 37t37 15zM303 916q22 0 37.5 -15t15.5 -37t-15.5 -37t-37.5 -15t-37 15t-15 37t15 37t37 15z" />
    <glyph glyph-name="Ydieresis" unicode="&#x178;" horiz-adv-x="460" 
d="M438 755l-168 -428v-327h-104v315l-166 440h110l140 -376l147 376h41zM155 916q22 0 37 -15t15 -37t-15 -37t-37 -15t-37 15t-15 37t15 37t37 15zM303 916q22 0 37.5 -15t15.5 -37t-15.5 -37t-37.5 -15t-37 15t-15 37t15 37t37 15z" />
    <glyph glyph-name="Euro" unicode="&#x20ac;" horiz-adv-x="500" 
d="M283 13q25 0 44 12t33.5 32t24.5 44.5t16 50.5h27q-2 -19 -11 -47t-26 -54.5t-43.5 -45t-64.5 -18.5q-45 0 -83 25.5t-67.5 69t-49.5 101.5t-28 123h-55v40h52q-1 5 -1 10v10q0 3 -0.5 6t-0.5 5q0 3 0.5 6t0.5 6v13.5t1 13.5h-52v40h56q9 64 29 120.5t49.5 99t67 67
t81.5 24.5q38 0 64.5 -19t43.5 -45t26 -54t11 -47h-27q-6 25 -16 50.5t-24.5 45t-33.5 32t-44 12.5q-24 0 -45 -10t-37 -40.5t-26.5 -87t-13.5 -148.5h159v-40h-160v-27v-9v-6v-8v-20h160v-40h-159q3 -95 13 -152.5t26 -88.5t37.5 -41.5t45.5 -10.5z" />
    <glyph glyph-name="quotesinglbase" unicode="&#x201a;" horiz-adv-x="131" 
d="M103 60q2 -3 4 -12t1 -19q0 -20 -7 -40t-18.5 -36t-26.5 -25.5t-31 -9.5v23q16 4 31.5 19.5t20.5 32.5q-9 -5 -23 -5q-22 0 -37 15t-15 37t15 37t37 15q17 0 30 -9t19 -23z" />
    <glyph glyph-name="quotedblbase" unicode="&#x201e;" horiz-adv-x="257" 
d="M228 60q2 -3 4 -12t2 -19q0 -20 -7.5 -40t-19 -36t-26.5 -25.5t-31 -9.5v23q17 4 32.5 19.5t19.5 32.5q-9 -5 -22 -5q-22 0 -37.5 15t-15.5 37t15.5 37t37.5 15q17 0 30 -9t18 -23zM103 60q2 -3 4 -12t1 -19q0 -20 -7 -40t-18.5 -36t-26.5 -25.5t-31 -9.5v23
q16 4 31.5 19.5t20.5 32.5q-9 -5 -23 -5q-22 0 -37 15t-15 37t15 37t37 15q17 0 30 -9t19 -23z" />
    <glyph glyph-name="Acircumflex" unicode="&#xc2;" 
d="M229 272l-61 372l-73 -372h134zM378 0h-104l-40 243h-145l-48 -243h-40l148 755h104zM117 813h-22l67 150h69l67 -150h-23l-79 117z" />
    <glyph glyph-name="Ecircumflex" unicode="&#xca;" horiz-adv-x="368" 
d="M104 25v353h129v25h-129v327h193v25h-297v-755h311v25h-207zM57 813h-22l67 150h69l67 -150h-23l-79 117z" />
    <glyph glyph-name="Aacute" unicode="&#xc1;" 
d="M229 272l-61 372l-73 -372h134zM378 0h-104l-40 243h-145l-48 -243h-40l148 755h104zM138 813l79 150h72l-119 -150h-32z" />
    <glyph glyph-name="Edieresis" unicode="&#xcb;" horiz-adv-x="541" 
d="M80 916q22 0 37 -15t15 -37t-15 -37t-37 -15t-37 15t-15 37t15 37t37 15zM228 916q22 0 37.5 -15t15.5 -37t-15.5 -37t-37.5 -15t-37 15t-15 37t15 37t37 15zM311 25v-25h-311v755h297v-25h-193v-327h129v-25h-129v-353h207z" />
    <glyph glyph-name="Egrave" unicode="&#xc8;" horiz-adv-x="373" 
d="M189 813l-119 150h72l79 -150h-32zM311 25v-25h-311v755h297v-25h-193v-327h129v-25h-129v-353h207z" />
    <glyph glyph-name="Iacute" unicode="&#xcd;" horiz-adv-x="162" 
d="M104 755v-755h-104v755h104zM-1 813l79 150h72l-119 -150h-32z" />
    <glyph glyph-name="Icircumflex" unicode="&#xce;" horiz-adv-x="162" 
d="M104 755v-755h-104v755h104zM-32 813h-22l67 150h69l67 -150h-23l-79 117z" />
    <glyph glyph-name="Idieresis" unicode="&#xcf;" horiz-adv-x="162" 
d="M104 755v-755h-104v755h104zM-24 916q22 0 37 -15t15 -37t-15 -37t-37 -15t-37 15t-15 37t15 37t37 15zM124 916q22 0 37.5 -15t15.5 -37t-15.5 -37t-37.5 -15t-37 15t-15 37t15 37t37 15z" />
    <glyph glyph-name="Igrave" unicode="&#xcc;" horiz-adv-x="162" 
d="M104 755v-755h-104v755h104zM70 813l-119 150h72l79 -150h-32z" />
    <glyph glyph-name="Oacute" unicode="&#xd3;" horiz-adv-x="509" 
d="M0 381q0 78 16 148t46 123t71.5 84t92.5 31q52 0 94 -31t71.5 -84t45.5 -123t16 -148q0 -71 -15.5 -141t-45 -126t-71.5 -91t-95 -35t-95 34t-71 89.5t-44.5 126t-15.5 143.5zM109 376q0 -104 8 -173.5t23.5 -111.5t37 -60t48.5 -18t48.5 18t36.5 60t23.5 111.5
t8.5 173.5q0 103 -8.5 173t-23.5 112.5t-36.5 61t-48.5 18.5q-26 0 -47.5 -18.5t-37 -61t-24 -112.5t-8.5 -173zM138 813l79 150h72l-119 -150h-32z" />
    <glyph glyph-name="Ocircumflex" unicode="&#xd4;" horiz-adv-x="509" 
d="M0 381q0 78 16 148t46 123t71.5 84t92.5 31q52 0 94 -31t71.5 -84t45.5 -123t16 -148q0 -71 -15.5 -141t-45 -126t-71.5 -91t-95 -35t-95 34t-71 89.5t-44.5 126t-15.5 143.5zM109 376q0 -104 8 -173.5t23.5 -111.5t37 -60t48.5 -18t48.5 18t36.5 60t23.5 111.5
t8.5 173.5q0 103 -8.5 173t-23.5 112.5t-36.5 61t-48.5 18.5q-26 0 -47.5 -18.5t-37 -61t-24 -112.5t-8.5 -173zM147 813h-22l67 150h69l67 -150h-23l-79 117z" />
    <glyph glyph-name="Ograve" unicode="&#xd2;" horiz-adv-x="509" 
d="M0 381q0 78 16 148t46 123t71.5 84t92.5 31q52 0 94 -31t71.5 -84t45.5 -123t16 -148q0 -71 -15.5 -141t-45 -126t-71.5 -91t-95 -35t-95 34t-71 89.5t-44.5 126t-15.5 143.5zM109 376q0 -104 8 -173.5t23.5 -111.5t37 -60t48.5 -18t48.5 18t36.5 60t23.5 111.5
t8.5 173.5q0 103 -8.5 173t-23.5 112.5t-36.5 61t-48.5 18.5q-26 0 -47.5 -18.5t-37 -61t-24 -112.5t-8.5 -173zM249 813l-119 150h72l79 -150h-32z" />
    <glyph glyph-name="Uacute" unicode="&#xda;" 
d="M334 755h38v-616q0 -32 -11 -60t-31 -48t-49.5 -31.5t-65.5 -11.5q-34 0 -71 7t-68 28t-51 58.5t-20 98.5v575h103v-598q0 -40 9.5 -66t25 -41.5t37 -21.5t45.5 -6q49 0 79 32.5t30 92.5v608zM148 813l79 150h72l-119 -150h-32z" />
    <glyph glyph-name="Ucircumflex" unicode="&#xdb;" horiz-adv-x="421" 
d="M106 813h-22l67 150h69l67 -150h-23l-79 117zM334 755h38v-616q0 -32 -11 -60t-31 -48t-49.5 -31.5t-65.5 -11.5q-34 0 -71 7t-68 28t-51 58.5t-20 98.5v575h103v-598q0 -40 9.5 -66t25 -41.5t37 -21.5t45.5 -6q49 0 79 32.5t30 92.5v608z" />
    <glyph glyph-name="Ugrave" unicode="&#xd9;" 
d="M334 755h38v-616q0 -32 -11 -60t-31 -48t-49.5 -31.5t-65.5 -11.5q-34 0 -71 7t-68 28t-51 58.5t-20 98.5v575h103v-598q0 -40 9.5 -66t25 -41.5t37 -21.5t45.5 -6q49 0 79 32.5t30 92.5v608zM229 813l-119 150h72l79 -150h-32z" />
    <glyph glyph-name="circumflex" unicode="&#x2c6;" horiz-adv-x="541" 
d="M57 813h-22l67 150h69l67 -150h-23l-79 117z" />
    <glyph glyph-name="minus" unicode="&#x2212;" horiz-adv-x="405" 
d="M377 334h-377v64h377v-64z" />
  </font>
</defs>
</svg>
