<svg width="20" height="20" viewBox="0 0 20 20" fill="none" xmlns="http://www.w3.org/2000/svg">
<path d="M6.66085 16.9999C13.4536 16.9999 17.1683 11.2295 17.1683 6.22578C17.1683 6.06189 17.165 5.89868 17.1579 5.73637C17.8789 5.20181 18.5055 4.53475 19 3.77546C18.3383 4.07717 17.6261 4.28 16.8792 4.37176C17.6416 3.90278 18.227 3.16122 18.5031 2.27721C17.7896 2.71097 16.9993 3.02611 16.1581 3.19632C15.4842 2.46029 14.5247 2 13.4623 2C11.423 2 9.76911 3.69577 9.76911 5.78615C9.76911 6.08345 9.80159 6.3724 9.86488 6.64961C6.79559 6.49125 4.07381 4.98454 2.25257 2.69325C1.93555 3.25276 1.7526 3.90289 1.7526 4.5966C1.7526 5.91019 2.40459 7.07017 3.39595 7.74852C2.79008 7.72945 2.22098 7.5589 1.72343 7.27503C1.72288 7.29094 1.72288 7.30641 1.72288 7.32334C1.72288 9.15727 2.99582 10.6885 4.68584 11.0354C4.37542 11.122 4.04882 11.1686 3.71198 11.1686C3.47443 11.1686 3.24283 11.1447 3.01783 11.1003C3.48797 12.6049 4.8514 13.6998 6.46777 13.7305C5.20375 14.7463 3.61148 15.3514 1.88095 15.3514C1.5833 15.3514 1.28906 15.3339 1 15.2989C2.63443 16.3731 4.57521 17 6.66096 17" fill="white"/>
</svg>
